<?xml version="1.0" encoding="iso-8859-1"?>
<!-- Uploaded to: SVG Repo, www.svgrepo.com, Generator: SVG Repo Mixer Tools -->
<svg height="800px" width="800px" version="1.1" id="Layer_1" xmlns="http://www.w3.org/2000/svg" xmlns:xlink="http://www.w3.org/1999/xlink" 
	 viewBox="0 0 512 512" xml:space="preserve">
<circle style="fill:#FF7F4F;" cx="256" cy="256" r="256"/>
<path style="fill:#E03A00;" d="M268.898,511.678c96.713-4.799,179.288-63.273,218.581-146.244L247.377,125.33l-39.789,3.963
	l-41.374,143.946l10.702,70.865l-63.71,11.881L268.898,511.678z"/>
<polygon style="fill:#5B5B5B;" points="183.256,297.372 129.165,297.372 183.529,134.278 210.575,134.278 "/>
<path style="fill:#383838;" d="M142.688,368.718h243.41c22.406,0,40.569-18.163,40.569-40.569l0,0
	c0-22.406-18.163-40.569-40.569-40.569h-243.41c-22.406,0-40.569,18.163-40.569,40.569l0,0
	C102.121,350.555,120.284,368.718,142.688,368.718z"/>
<path style="fill:#212121;" d="M386.098,287.582H263.88v81.137h122.218c22.406,0,40.569-18.163,40.569-40.569l0,0
	C426.667,305.745,408.504,287.582,386.098,287.582z"/>
<circle style="fill:#FFEDB5;" cx="142.274" cy="328.145" r="27.046"/>
<circle style="fill:#FDE085;" cx="386.517" cy="328.145" r="27.046"/>
<path style="fill:#383838;" d="M179.429,113.892l-8.745-10.674c-4.73-5.775-13.246-6.623-19.023-1.896l-0.434,0.355
	c-5.611,4.591-6.603,12.791-2.248,18.589l15.196,20.225c2.555,3.4,6.559,5.399,10.811,5.399h60.859
	c7.468,0,13.522-6.054,13.522-13.522l0,0c0-7.468-6.054-13.522-13.522-13.522H189.89
	C185.837,118.844,181.998,117.026,179.429,113.892z"/>
</svg>